{"extensionsUsed" : ["KHR_materials_pbrSpecularGlossiness"], "accessors" : [{"bufferView" : 0, "byteOffset" : 0, "componentType" : 5125, "count" : 1315392, "type" : "SCALAR", "max" : [275790], "min" : [0]}, {"bufferView" : 1, "byteOffset" : 0, "componentType" : 5126, "count" : 275791, "type" : "VEC3", "max" : [7.50891923904419, 0.096000000834465, 1.0460000038147], "min" : [-7.41599941253662, -0.096000000834465, -0.931999981403351]}, {"bufferView" : 1, "byteOffset" : 12, "componentType" : 5126, "count" : 275791, "type" : "VEC3", "max" : [1.00000441074371, 1.00000441074371, 1.00000441074371], "min" : [-1.00000441074371, -1.00000441074371, -1.00000441074371]}, {"bufferView" : 1, "byteOffset" : 24, "componentType" : 5126, "count" : 275791, "type" : "VEC2", "max" : [0.996552526950836, 0.999972760677338], "min" : [0, 0]}, {"bufferView" : 1, "byteOffset" : 32, "componentType" : 5126, "count" : 275791, "type" : "VEC4", "max" : [1, 1, 1, 1], "min" : [1, 1, 1, 1]}], "asset" : {"generator" : "Aspose.3D 20.2.1", "version" : "2.0"}, "buffers" : [{"uri" : "buffer.bin", "byteLength" : 20455632}], "bufferViews" : [{"buffer" : 0, "byteOffset" : 0, "byteLength" : 5261568, "target" : 34963}, {"buffer" : 0, "byteOffset" : 5261572, "byteLength" : 13237968, "byteStride" : 48, "target" : 34962}, {"buffer" : 0, "byteOffset" : 18499544, "byteLength" : 163}, {"buffer" : 0, "byteOffset" : 18499708, "byteLength" : 894805}, {"buffer" : 0, "byteOffset" : 19394516, "byteLength" : 711977}, {"buffer" : 0, "byteOffset" : 20106496, "byteLength" : 349135}], "images" : [{"mimeType" : "image/png", "bufferView" : 2}, {"mimeType" : "image/png", "bufferView" : 3}, {"mimeType" : "image/png", "bufferView" : 4}, {"mimeType" : "image/png", "bufferView" : 5}], "materials" : [{"extensions" : {"KHR_materials_pbrSpecularGlossiness" : {"diffuseFactor" : [1, 1, 1, 1], "diffuseTexture" : {"index" : 0, "texCoord" : 0}, "specularFactor" : [1, 1, 1], "glossinessFactor" : 1, "specularGlossinessTexture" : {"index" : 1, "texCoord" : 0, "scale" : 1}}}, "pbrMetallicRoughness" : {"baseColorFactor" : [1, 1, 1, 1], "baseColorTexture" : {"index" : 2, "texCoord" : 0}, "metallicFactor" : 1, "roughnessFactor" : 1, "metallicRoughnessTexture" : {"index" : 3, "texCoord" : 0}}, "emissiveFactor" : [0, 0, 0], "alphaMode" : "OPAQUE", "doubleSided" : true}], "meshes" : [{"primitives" : [{"attributes" : {"POSITION" : 1, "NORMAL" : 2, "TEXCOORD_0" : 3, "COLOR" : 4}, "indices" : 0, "material" : 0, "mode" : 4}]}], "nodes" : [{"mesh" : 0, "name" : "node_id7"}, {"children" : [0], "matrix" : [0.0314691960811615, 0, 0, 0, 0, -0.0102557532497709, 0.0297511314434861, 0, 0, -0.0297511314434861, -0.0102557532497709, 0, -0.00146123685408384, 0.22728730738163, 0.0135816652327776, 1], "name" : "node_id6"}, {"children" : [1], "name" : "root"}], "samplers" : [{"magFilter" : 9728, "minFilter" : 9985, "wrapS" : 10497, "wrapT" : 10497}, {"magFilter" : 9728, "minFilter" : 9985, "wrapS" : 10497, "wrapT" : 10497}, {"magFilter" : 9728, "minFilter" : 9985, "wrapS" : 10497, "wrapT" : 10497}, {"magFilter" : 9728, "minFilter" : 9985, "wrapS" : 10497, "wrapT" : 10497}], "scene" : 0, "scenes" : [{"nodes" : [2]}], "textures" : [{"sampler" : 0, "source" : 0}, {"sampler" : 1, "source" : 1}, {"sampler" : 2, "source" : 2}, {"sampler" : 3, "source" : 3}]}